<svg class="svg-icon" style="width: 1em;height: 1em;vertical-align: middle;fill: currentColor;overflow: hidden;" viewBox="0 0 1024 1024" version="1.1" xmlns="http://www.w3.org/2000/svg"><path d="M661.333333 764.330667l-33.834666 33.834666A42.666667 42.666667 0 0 1 597.333333 810.666667H85.333333a42.666667 42.666667 0 0 1-42.666666-42.666667v-151.466667a42.666667 42.666667 0 0 1 34.176-41.813333 64.042667 64.042667 0 0 0 0-125.44A42.666667 42.666667 0 0 1 42.666667 407.466667V256a42.666667 42.666667 0 0 1 42.666666-42.666667h512a42.666667 42.666667 0 0 1 30.165334 12.501334L661.333333 259.669333l33.834667-33.834666A42.666667 42.666667 0 0 1 725.333333 213.333333h213.333334a42.666667 42.666667 0 0 1 42.666666 42.666667v151.466667a42.666667 42.666667 0 0 1-34.176 41.813333 64.042667 64.042667 0 0 0 0 125.44A42.666667 42.666667 0 0 1 981.333333 616.533333V768a42.666667 42.666667 0 0 1-42.666666 42.666667H725.333333a42.666667 42.666667 0 0 1-30.165333-12.501334L661.333333 764.330667zM896 725.333333v-78.357333a149.418667 149.418667 0 0 1 0-269.952V298.666667h-153.002667L704 337.664v348.672L742.997333 725.333333H896z m-277.333333-38.997333V337.664L579.669333 298.666667H128v78.357333a149.418667 149.418667 0 0 1 0 269.952V725.333333h451.669333L618.666667 686.336z" fill="#000000" /></svg>