<svg width="29" height="33" viewBox="0 0 29 33" fill="none" xmlns="http://www.w3.org/2000/svg">
<path fill-rule="evenodd" clip-rule="evenodd" d="M2.75953 7.57256V17.2959C2.75953 24.5559 9.19065 28.0461 14.3561 30.8511L14.494 30.9249L14.6337 30.8511C19.7992 28.0461 26.2303 24.5559 26.2303 17.2959V7.57256L14.494 2.04408L2.75952 7.57256H2.75953ZM14.494 33.002C14.3348 33.002 14.1756 32.9612 14.03 32.8835L13.4302 32.5574C8.10749 29.667 0.818359 25.7109 0.818359 17.2959V6.95717C0.818359 6.5806 1.03578 6.23894 1.37548 6.07783L14.0824 0.0931734C14.3425 -0.0310578 14.6473 -0.0310578 14.9074 0.0931734L27.6144 6.07786C27.9541 6.23898 28.1715 6.58063 28.1715 6.95721V17.2959C28.1715 25.7109 20.8804 29.667 15.5596 32.5574L14.9598 32.8836C14.8142 32.9612 14.6551 33.002 14.494 33.002ZM22.5232 23.5892H17.1365L15.5622 22.0168V20.5765H13.555V18.5693H12.1166L11.1111 17.5638C11.0781 17.5657 11.0451 17.5657 11.0121 17.5657C7.98577 17.5657 5.52435 15.1043 5.52435 12.078C5.52435 9.05173 7.98577 6.58836 11.0121 6.58836C14.0383 6.58836 16.4998 9.05173 16.4998 12.078C16.4998 12.111 16.4998 12.144 16.4978 12.1751L22.5232 18.2024L22.5232 23.5892ZM17.9401 21.648H20.5821V19.0061L14.4732 12.8933L14.5411 12.2527C14.5586 10.1232 12.9668 8.52956 11.0121 8.52956C9.05729 8.52956 7.46552 10.1232 7.46552 12.078C7.46552 14.0347 9.05729 15.6246 11.0121 15.6246L11.8235 15.5333L12.9202 16.6282H15.4962V18.6353H17.5033V21.2132L17.9401 21.648ZM12.5536 12.1335C12.5536 12.9372 11.9013 13.5894 11.0977 13.5894C10.294 13.5894 9.64179 12.9372 9.64179 12.1335C9.64179 11.3299 10.294 10.6776 11.0977 10.6776C11.9013 10.6776 12.5536 11.3299 12.5536 12.1335Z" fill="black"/>
</svg>
