<svg width="34" height="33" viewBox="0 0 34 33" fill="none" xmlns="http://www.w3.org/2000/svg">
<path fill-rule="evenodd" clip-rule="evenodd" d="M17.3289 11.3442C14.4916 11.3442 12.1914 13.6528 12.1914 16.5005C12.1914 19.3483 14.4916 21.6567 17.3289 21.6567C20.1663 21.6567 22.4664 19.3483 22.4664 16.5005C22.4664 13.6528 20.1663 11.3442 17.3289 11.3442ZM14.2464 16.5005C14.2464 14.7919 15.6266 13.4067 17.3289 13.4067C19.0313 13.4067 20.4114 14.7919 20.4114 16.5005C20.4114 18.2091 19.0313 19.5942 17.3289 19.5942C15.6266 19.5942 14.2464 18.2091 14.2464 16.5005Z" fill="black"/>
<path fill-rule="evenodd" clip-rule="evenodd" d="M17.2943 1.71924C16.6855 1.71923 16.1771 1.71923 15.7598 1.7478C15.3254 1.77755 14.915 1.84168 14.5172 2.00707C13.5941 2.39084 12.8606 3.12695 12.4782 4.05347C12.2792 4.53582 12.2253 5.04415 12.2047 5.59668C12.1881 6.04085 11.9648 6.41144 11.6352 6.60243C11.3056 6.79342 10.8741 6.80224 10.4826 6.59455C9.99554 6.33617 9.52994 6.12885 9.01419 6.06071C8.02354 5.92981 7.02164 6.19925 6.22892 6.80975C5.88729 7.07284 5.62677 7.39744 5.3839 7.76016C5.15057 8.1086 4.89642 8.55044 4.59196 9.07971L4.55737 9.13985C4.2529 9.6691 3.99874 10.1109 3.81473 10.4879C3.62319 10.8804 3.47336 11.2691 3.41714 11.6976C3.28672 12.6919 3.55519 13.6974 4.16345 14.4931C4.48009 14.9071 4.89171 15.2083 5.35811 15.5024C5.73319 15.7389 5.94134 16.1184 5.94131 16.5005C5.9413 16.8825 5.73315 17.262 5.35811 17.4985C4.89165 17.7926 4.47999 18.0937 4.16333 18.5078C3.55505 19.3034 3.2866 20.309 3.41701 21.3032C3.47322 21.7317 3.62306 22.1205 3.8146 22.5129C3.9986 22.89 4.25277 23.3318 4.55722 23.861L4.59183 23.9212C4.89628 24.4505 5.15043 24.8922 5.38376 25.2407C5.62663 25.6034 5.88715 25.928 6.22878 26.1911C7.0215 26.8016 8.0234 27.0711 9.01405 26.9402C9.52978 26.872 9.99535 26.6648 10.4824 26.4064C10.874 26.1986 11.3055 26.2074 11.6351 26.3986C11.9648 26.5895 12.1881 26.9601 12.2047 27.4044C12.2253 27.9568 12.2792 28.4652 12.4782 28.9475C12.8606 29.874 13.5941 30.6102 14.5172 30.9939C14.915 31.1594 15.3254 31.2234 15.7598 31.2531C16.1771 31.2817 16.6855 31.2817 17.2943 31.2817H17.3635C17.9725 31.2817 18.4807 31.2817 18.8982 31.2531C19.3326 31.2234 19.7429 31.1594 20.1408 30.9939C21.0639 30.6102 21.7974 29.874 22.1798 28.9475C22.3788 28.4652 22.4327 27.9568 22.4532 27.4042C22.4698 26.9601 22.6931 26.5895 23.0227 26.3984C23.3523 26.2074 23.7839 26.1986 24.1754 26.4063C24.6625 26.6646 25.128 26.872 25.6438 26.94C26.6345 27.0709 27.6364 26.8016 28.429 26.1911C28.7707 25.9279 29.0312 25.6034 29.2741 25.2407C29.5074 24.8922 29.7615 24.4505 30.0659 23.9212L30.1006 23.861C30.405 23.3318 30.6593 22.8898 30.8433 22.5128C31.0348 22.1204 31.1845 21.7317 31.2408 21.3032C31.3713 20.3088 31.1027 19.3033 30.4945 18.5077C30.1779 18.0936 29.7662 17.7926 29.2998 17.4985C28.9247 17.262 28.7166 16.8825 28.7166 16.5003C28.7166 16.1184 28.9247 15.739 29.2997 15.5025C29.7663 15.2084 30.178 14.9074 30.4946 14.4931C31.1029 13.6975 31.3714 12.692 31.241 11.6977C31.1847 11.2692 31.0349 10.8805 30.8434 10.488C30.6594 10.111 30.4053 9.66925 30.1007 9.14004L30.0662 9.07986C29.7616 8.55058 29.5075 8.1087 29.2742 7.76026C29.0313 7.39753 28.7709 7.07294 28.4292 6.80983C27.6365 6.19935 26.6346 5.9299 25.6438 6.0608C25.1281 6.12895 24.6626 6.33624 24.1756 6.5946C23.784 6.80232 23.3525 6.79348 23.0229 6.60247C22.6932 6.41147 22.4698 6.04082 22.4532 5.59661C22.4327 5.0441 22.3788 4.53579 22.1798 4.05347C21.7974 3.12695 21.0639 2.39084 20.1408 2.00707C19.7429 1.84168 19.3326 1.77755 18.8982 1.7478C18.4807 1.71923 17.9725 1.71923 17.3635 1.71924H17.2943ZM15.3036 3.91257C15.4093 3.86862 15.5699 3.8281 15.8997 3.80551C16.2387 3.7823 16.6766 3.78174 17.329 3.78174C17.9814 3.78174 18.4192 3.7823 18.7582 3.80551C19.0881 3.8281 19.2486 3.86862 19.3543 3.91257C19.7739 4.08702 20.1074 4.42161 20.2811 4.84276C20.336 4.9756 20.3814 5.18268 20.3997 5.6737C20.4403 6.76322 21.0006 7.81226 21.9954 8.38865C22.99 8.96505 24.1754 8.92754 25.1358 8.41807C25.5686 8.18848 25.7701 8.12443 25.9121 8.10566C26.3624 8.04616 26.8178 8.16863 27.1781 8.44612C27.2689 8.51603 27.3841 8.63534 27.5685 8.91071C27.7581 9.19378 27.9775 9.57406 28.3037 10.1411C28.6299 10.7082 28.8484 11.089 28.9979 11.3953C29.1432 11.6932 29.1886 11.8531 29.2035 11.9669C29.2628 12.4189 29.1408 12.8759 28.8643 13.2376C28.777 13.3517 28.6211 13.4947 28.2064 13.7561C27.2867 14.3362 26.6617 15.3477 26.6616 16.5003C26.6616 17.6531 27.2866 18.6647 28.2064 19.2448C28.621 19.5062 28.7769 19.6492 28.8642 19.7634C29.1406 20.125 29.2627 20.582 29.2034 21.034C29.1884 21.1478 29.1431 21.3076 28.9977 21.6056C28.8483 21.9118 28.6297 22.2927 28.3035 22.8597C27.9773 23.4268 27.758 23.8071 27.5684 24.0902C27.384 24.3655 27.2688 24.4848 27.1779 24.5547C26.8176 24.8323 26.3622 24.9547 25.9119 24.8953C25.77 24.8764 25.5685 24.8124 25.1357 24.5829C24.1753 24.0733 22.9898 24.0359 21.9951 24.6123C21.0006 25.1887 20.4403 26.2377 20.3997 27.3272C20.3814 27.8182 20.336 28.0253 20.2811 28.1583C20.1074 28.5793 19.7739 28.914 19.3543 29.0885C19.2486 29.1323 19.0881 29.1729 18.7582 29.1954C18.4192 29.2187 17.9814 29.2192 17.329 29.2192C16.6766 29.2192 16.2387 29.2187 15.8997 29.1954C15.5699 29.1729 15.4093 29.1323 15.3036 29.0885C14.8841 28.914 14.5506 28.5793 14.3768 28.1583C14.322 28.0253 14.2765 27.8182 14.2582 27.3272C14.2176 26.2378 13.6573 25.1887 12.6626 24.6123C11.6679 24.0359 10.4825 24.0734 9.52212 24.5829C9.08929 24.8125 8.88788 24.8766 8.74583 24.8953C8.29553 24.9548 7.84012 24.8323 7.4798 24.5548C7.38902 24.485 7.27376 24.3656 7.08937 24.0902C6.89983 23.8072 6.68043 23.4269 6.35423 22.8599C6.02802 22.2928 5.80958 21.9119 5.6601 21.6057C5.51469 21.3078 5.46937 21.1478 5.45444 21.034C5.39516 20.582 5.51718 20.125 5.79368 19.7634C5.88089 19.6494 6.03687 19.5062 6.45142 19.2448C7.37121 18.6649 7.99626 17.6533 7.99632 16.5006C7.99639 15.3477 7.37131 14.3361 6.45143 13.756C6.03698 13.4946 5.88102 13.3516 5.7938 13.2375C5.51732 12.8759 5.39529 12.4188 5.45457 11.9668C5.46951 11.853 5.51483 11.6931 5.66024 11.3952C5.80972 11.0889 6.02815 10.7081 6.35435 10.141C6.68056 9.57397 6.89996 9.19368 7.08951 8.91061C7.2739 8.63525 7.38916 8.51593 7.47992 8.44604C7.84026 8.16854 8.29566 8.04607 8.74596 8.10556C8.88801 8.12433 9.08944 8.18838 9.52233 8.41802C10.4827 8.92747 11.668 8.96497 12.6627 8.38861C13.6573 7.81225 14.2176 6.76325 14.2582 5.67377C14.2765 5.18271 14.322 4.97561 14.3768 4.84276C14.5506 4.42161 14.8841 4.08702 15.3036 3.91257Z" fill="black"/>
</svg>
