<svg width="24" height="25" viewBox="0 0 24 25" fill="none" xmlns="http://www.w3.org/2000/svg">
<path d="M6.24801 10.7635H15.5316C15.7477 10.7635 15.9617 10.7991 16.1613 10.8682C16.3609 10.9373 16.5423 11.0385 16.6951 11.1662C16.8479 11.2939 16.9691 11.4455 17.0518 11.6123C17.1345 11.7791 17.1771 11.9579 17.1771 12.1385C17.1771 12.3191 17.1345 12.4979 17.0518 12.6647C16.9691 12.8315 16.8479 12.9831 16.6951 13.1108C16.5423 13.2385 16.3609 13.3397 16.1613 13.4088C15.9617 13.4779 15.7477 13.5135 15.5316 13.5135H6.24801L8.0942 15.0562C8.40274 15.3143 8.57598 15.6641 8.57583 16.0289C8.57567 16.3936 8.40213 16.7434 8.09338 17.0012C7.78463 17.259 7.36596 17.4038 6.92947 17.4037C6.49298 17.4035 6.07443 17.2585 5.7659 17.0005L1.11258 13.112C0.958997 12.9846 0.837108 12.833 0.75393 12.6661C0.670752 12.4991 0.62793 12.32 0.62793 12.1392C0.62793 11.9583 0.670752 11.7793 0.75393 11.6123C0.837108 11.4454 0.958997 11.2938 1.11258 11.1664L5.76425 7.27788C6.07279 7.01987 6.49133 6.87485 6.92782 6.87472C7.36431 6.87459 7.78298 7.01936 8.09173 7.27719C8.40049 7.53501 8.57403 7.88477 8.57418 8.24951C8.57434 8.61426 8.40109 8.96412 8.09256 9.22212L6.24801 10.7635ZM22.0213 0C22.4577 0 22.8762 0.144866 23.1848 0.402728C23.4933 0.660591 23.6667 1.01033 23.6667 1.375V23.375C23.6667 23.7397 23.4933 24.0894 23.1848 24.3473C22.8762 24.6051 22.4577 24.75 22.0213 24.75C21.5849 24.75 21.1663 24.6051 20.8577 24.3473C20.5492 24.0894 20.3758 23.7397 20.3758 23.375V1.375C20.3758 1.01033 20.5492 0.660591 20.8577 0.402728C21.1663 0.144866 21.5849 0 22.0213 0Z" fill="black"/>
</svg>
