<svg width="100" height="100" viewBox="0 0 100 100" fill="none" xmlns="http://www.w3.org/2000/svg">
<path d="M29.1753 41.7867C31.1324 41.6667 33.5452 41.6667 36.6481 41.6667H63.2179C66.3207 41.6667 68.7336 41.6667 70.6906 41.7867M29.1753 41.7867C26.7329 41.9363 25.0001 42.2729 23.521 43.0292C21.1775 44.2275 19.2722 46.1396 18.0782 48.4917C16.7207 51.1658 16.7207 54.6658 16.7207 61.6667V67.5C16.7207 74.5008 16.7207 78.0008 18.0782 80.675C19.2722 83.0271 21.1775 84.9392 23.521 86.1375C26.1852 87.5 29.6728 87.5 36.6481 87.5H63.2179C70.1933 87.5 73.6805 87.5 76.345 86.1375C78.6885 84.9392 80.5937 83.0271 81.7877 80.675C83.1452 78.0008 83.1452 74.5008 83.1452 67.5V61.6667C83.1452 54.6658 83.1452 51.1658 81.7877 48.4917C80.5937 46.1396 78.6885 44.2275 76.345 43.0292C74.8658 42.2729 73.133 41.9363 70.6906 41.7867M29.1753 41.7867V33.3333C29.1753 21.8274 38.4688 12.5 49.933 12.5C61.397 12.5 70.6906 21.8274 70.6906 33.3333V41.7867" stroke="black" stroke-width="5.33333" stroke-linecap="round" stroke-linejoin="round"/>
</svg>
