<svg width="101" height="100" viewBox="0 0 101 100" fill="none" xmlns="http://www.w3.org/2000/svg">
<path d="M90.3617 59.5835L88.7011 80.4168C88.0783 86.7918 87.5802 91.6668 76.3295 91.6668H24.1034C12.8528 91.6668 12.3546 86.7918 11.7319 80.4168L10.0712 59.5835C9.73912 56.1252 10.8185 52.9168 12.7697 50.4585C12.8112 50.4168 12.8112 50.4168 12.8528 50.3752C15.1361 47.5835 18.5819 45.8335 22.4428 45.8335H77.9901C81.851 45.8335 85.2553 47.5835 87.4971 50.2918C87.5386 50.3335 87.5802 50.3752 87.5802 50.4168C89.6144 52.8752 90.7353 56.0835 90.3617 59.5835Z" stroke="#600484" stroke-width="4" stroke-miterlimit="10"/>
<path opacity="0.4" d="M14.9258 47.6242V26.1659C14.9258 11.9992 18.4546 8.45752 32.5698 8.45752H37.8422C43.1147 8.45752 44.3186 10.0409 46.3114 12.7075L51.5838 19.7909C52.9123 21.5409 53.7011 22.6242 57.2299 22.6242H67.8163C81.9315 22.6242 85.4603 26.1659 85.4603 40.3325V47.7909" stroke="#600484" stroke-width="4" stroke-miterlimit="10" stroke-linecap="round" stroke-linejoin="round"/>
<path opacity="0.4" d="M39.543 70.8335H60.8819" stroke="#600484" stroke-width="4" stroke-miterlimit="10" stroke-linecap="round" stroke-linejoin="round"/>
</svg>
