<svg width="34" height="33" viewBox="0 0 34 33" fill="none" xmlns="http://www.w3.org/2000/svg">
<path d="M28.6188 23.3159L24.6193 22.3563L20.161 17.8817L23.5958 14.4388C24.3937 14.7198 25.2229 14.8571 26.0483 14.857C27.9791 14.8569 29.8864 14.1051 31.3049 12.6841C33.5011 10.4839 34.0963 7.11073 32.786 4.29052L32.1784 2.98286L28.5631 6.603L26.8842 4.92106L30.5006 1.29997L29.1918 0.689532C26.3784 -0.622519 23.0133 -0.0263101 20.8181 2.17294C18.7935 4.2013 18.1296 7.22686 19.0649 9.89675L17.7136 11.2513L7.75488 1.25715C7.01114 0.508194 6.02066 0.0950762 4.96582 0.0938624C4.96427 0.0938624 4.96286 0.0938624 4.96132 0.0938624C3.90667 0.0938624 2.91532 0.505497 2.16929 1.25344C1.42246 2.003 1.01151 2.99918 1.01205 4.05854C1.01259 5.1171 1.42387 6.1124 2.16997 6.86074L12.1257 16.8524L10.7715 18.2098C8.10717 17.2713 5.08723 17.936 3.06234 19.9645C0.866175 22.1647 0.270922 25.5378 1.5813 28.358L2.18885 29.6657L5.80417 26.0456L7.48303 27.7275L3.86663 31.3487L5.17552 31.959C6.1709 32.4232 7.23509 32.6485 8.29242 32.6485C10.2234 32.6484 12.1307 31.8967 13.5492 30.4756C15.5738 28.4473 16.2377 25.4217 15.3024 22.7518L18.7347 19.3113L23.194 23.7868L24.15 27.8009L29.304 32.9737L33.7727 28.4887L28.6188 23.3159ZM21.1638 9.71082C20.2109 7.65946 20.6444 5.20557 22.2422 3.60476C23.4705 2.37431 25.201 1.83265 26.8668 2.08069L24.0306 4.92065L28.5627 9.46104L31.4009 6.61912C31.6493 8.28737 31.1091 10.0217 29.8809 11.2522C28.2816 12.8544 25.83 13.2885 23.7803 12.3325L23.1417 12.0346L20.8166 14.3652L19.139 12.6816L21.462 10.3531L21.1638 9.71082ZM3.0278 4.05746C3.02753 3.53887 3.22884 3.0511 3.59423 2.68431C3.95928 2.3184 4.44468 2.1169 4.96138 2.1169C5.4795 2.11751 5.96375 2.31934 6.3284 2.68647L19.3904 15.7948L16.6549 18.5368L3.5951 5.42993C3.22958 5.06328 3.02807 4.57585 3.0278 4.05746ZM12.1251 29.0438C10.8968 30.2743 9.16611 30.8159 7.5005 30.5679L10.3367 27.728L5.80457 23.1875L2.96639 26.0295C2.71791 24.3613 3.2582 22.6269 4.48647 21.3964C6.0857 19.7942 8.53733 19.36 10.587 20.316L11.2256 20.6139L13.5511 18.2829L15.2286 19.9665L12.9053 22.2954L13.2036 22.9377C14.1565 24.9891 13.723 27.4429 12.1251 29.0438ZM25.9781 26.7746L25.4699 24.6405L27.5962 25.1506L30.9221 28.4887L29.304 30.1126L25.9781 26.7746Z" fill="black"/>
</svg>
