<svg width="34" height="29" viewBox="0 0 34 29" fill="none" xmlns="http://www.w3.org/2000/svg">
<path d="M32.9343 24.101H28.261V19.8145C28.261 19.3917 27.8875 19.049 27.4265 19.049H23.7545C23.2935 19.049 22.92 19.3917 22.92 19.8145V24.101H15.4093V12.595C15.4853 12.5334 15.5598 12.4702 15.632 12.4048L23.2268 9.83844L23.422 13.1201C23.4462 13.5261 23.8121 13.8439 24.2553 13.8439H24.756V16.4464C24.756 16.8693 25.1295 17.2119 25.5905 17.2119C26.0515 17.2119 26.425 16.8693 26.425 16.4464V13.8439H27.037C27.4842 13.8439 27.8518 13.5207 27.8707 13.111L28.1181 7.76336C28.5404 7.38358 28.8893 6.93333 29.1445 6.426C29.6969 5.32819 29.7502 4.09878 29.2946 2.96421C28.8388 1.82964 27.9288 0.925786 26.732 0.419073C25.5354 -0.0876396 24.1949 -0.136483 22.958 0.281479L12.2249 3.90838C12.0913 3.89935 11.9569 3.89315 11.8208 3.89315C8.82983 3.89315 6.39648 6.12512 6.39648 8.86858C6.39648 9.67272 6.60682 10.4323 6.9778 11.1052L2.92968 24.101H1.72318C1.2622 24.101 0.888672 24.4436 0.888672 24.8665V28.2345C0.888672 28.6574 1.2622 29 1.72318 29H32.9343C33.3953 29 33.7688 28.6574 33.7688 28.2345V24.8665C33.7688 24.4436 33.3953 24.101 32.9343 24.101ZM24.589 20.5799H26.5918V24.101H24.589V20.5799ZM26.2371 12.3129H25.0456L24.8655 9.28472L26.3699 8.77638C26.3805 8.77283 26.3907 8.76856 26.4013 8.76501L26.2371 12.3129ZM23.535 1.71794C24.3533 1.44133 25.2403 1.47352 26.0326 1.80903C26.8246 2.14433 27.4268 2.74254 27.7284 3.49337C28.0301 4.24419 27.9947 5.05778 27.6291 5.78424C27.2635 6.51079 26.6113 7.0632 25.7928 7.33981L17.0133 10.3065C17.1636 9.85094 17.2453 9.36829 17.2453 8.86838C17.2453 7.11519 16.2507 5.57201 14.7527 4.68561L23.535 1.71794ZM11.8209 5.42385C13.8916 5.42385 15.5762 6.96907 15.5762 8.86838C15.5762 10.7677 13.8916 12.3129 11.8209 12.3129C9.75025 12.3129 8.06562 10.7677 8.06562 8.86838C8.06562 6.96907 9.75025 5.42385 11.8209 5.42385ZM8.24618 12.606C9.20159 13.3757 10.4524 13.8439 11.8209 13.8439C12.4966 13.8439 13.1432 13.7291 13.7404 13.5211V24.101H4.66557L8.24618 12.606ZM32.0998 27.469H2.5577V25.6319H32.0998V27.469Z" fill="black"/>
</svg>
