<svg width="33" height="33" viewBox="0 0 33 33" fill="none" xmlns="http://www.w3.org/2000/svg">
<path d="M27.7367 14.8931H5.26429C3.34996 14.8931 1.79297 16.4503 1.79297 18.3646V21.5798V22.6095L2.81171 22.7553C3.40049 22.8398 3.8449 23.352 3.8449 23.9466C3.8449 24.5412 3.40075 25.0535 2.81223 25.1378L1.79297 25.2836V26.3135V29.5291C1.79297 31.443 3.34996 33.0002 5.26429 33.0002H27.7367C29.651 33.0002 31.2083 31.443 31.2083 29.5291V26.335V25.2014L30.0758 25.1484C29.4324 25.1186 28.928 24.5906 28.928 23.9467C28.928 23.3033 29.4324 22.7753 30.0762 22.7449L31.2083 22.6914V21.5583V18.3646C31.2083 16.4503 29.651 14.8931 27.7367 14.8931ZM30.0202 21.5583C28.7513 21.6186 27.7404 22.663 27.7404 23.9467C27.7404 25.2308 28.7513 26.2757 30.0202 26.335V29.5291C30.0202 30.7902 28.9977 31.8126 27.7367 31.8126H5.26429C4.003 31.8126 2.98058 30.7902 2.98058 29.5291V26.3135C4.14016 26.1472 5.03251 25.1526 5.03251 23.9466C5.03251 22.7411 4.14009 21.7465 2.98058 21.5798V18.3646C2.98058 17.1031 4.003 16.0807 5.26429 16.0807H27.7367C28.9977 16.0807 30.0202 17.1031 30.0202 18.3646V21.5583Z" fill="black"/>
<path d="M9.39701 28.3218H8.61133V30.3714H9.39701V28.3218Z" fill="black"/>
<path d="M9.39701 24.7217H8.61133V26.7708H9.39701V24.7217Z" fill="black"/>
<path d="M9.39701 21.1211H8.61133V23.1707H9.39701V21.1211Z" fill="black"/>
<path d="M9.39701 17.5215H8.61133V19.571H9.39701V17.5215Z" fill="black"/>
<path d="M7.16904 11.6504L6.48242 12.0321L7.47893 13.8227L8.16529 13.441L7.16904 11.6504Z" fill="black"/>
<path d="M32.0662 11.5387L30.5132 8.74719L29.9616 7.75719L28.9465 8.2616C28.3698 8.5479 27.6724 8.33186 27.3599 7.76925C27.0463 7.20715 27.2309 6.50036 27.7783 6.16114L28.742 5.56392L28.1904 4.5734L26.6379 1.78297C25.7072 0.110474 23.5894 -0.493581 21.9163 0.437638L2.27916 11.363C0.606277 12.2937 0.0028028 14.412 0.933506 16.0846L0.989902 16.1863C1.20066 15.7742 1.46879 15.3972 1.78422 15.0642C1.47465 14.056 1.89779 12.9345 2.85646 12.4007L22.4941 1.4752C23.5963 0.86174 24.9868 1.25813 25.6002 2.36027L27.1528 5.15122C26.0731 5.82025 25.6978 7.22545 26.3217 8.34694C26.9456 9.46849 28.3372 9.89007 29.475 9.32482L31.028 12.1164C31.4968 12.9579 31.372 13.9657 30.7979 14.6688C31.1057 14.9241 31.3772 15.2204 31.6132 15.5434C32.5738 14.4713 32.8045 12.8658 32.0662 11.5387Z" fill="black"/>
</svg>
