<svg width="34" height="33" viewBox="0 0 34 33" fill="none" xmlns="http://www.w3.org/2000/svg">
<path fill-rule="evenodd" clip-rule="evenodd" d="M20.4558 5.90272C20.0545 6.30546 20.0545 6.95364 20.0545 8.25C20.0545 9.54636 20.0545 10.1945 20.4558 10.5973C20.8571 11 21.5029 11 22.7946 11H25.5346C26.8262 11 27.472 11 27.8733 10.5973C28.2746 10.1945 28.2746 9.54636 28.2746 8.25C28.2746 6.95364 28.2746 6.30546 27.8733 5.90272C27.472 5.5 26.8262 5.5 25.5346 5.5H22.7946C21.5029 5.5 20.8571 5.5 20.4558 5.90272ZM6.75575 22.4027C6.35449 22.8055 6.35449 23.4537 6.35449 24.75C6.35449 26.0464 6.35449 26.6945 6.75575 27.0973C7.15703 27.5 7.80285 27.5 9.0945 27.5H11.8345C13.1262 27.5 13.772 27.5 14.1733 27.0973C14.5745 26.6945 14.5745 26.0464 14.5745 24.75C14.5745 23.4537 14.5745 22.8055 14.1733 22.4027C13.772 22 13.1262 22 11.8345 22H9.0945C7.80285 22 7.15703 22 6.75575 22.4027ZM20.0545 19.25C20.0545 17.9537 20.0545 17.3055 20.4558 16.9027C20.8571 16.5 21.5029 16.5 22.7946 16.5H25.5346C26.8262 16.5 27.472 16.5 27.8733 16.9027C28.2746 17.3055 28.2746 17.9537 28.2746 19.25V24.75C28.2746 26.0464 28.2746 26.6945 27.8733 27.0973C27.472 27.5 26.8262 27.5 25.5346 27.5H22.7946C21.5029 27.5 20.8571 27.5 20.4558 27.0973C20.0545 26.6945 20.0545 26.0464 20.0545 24.75V19.25ZM6.75575 5.90272C6.35449 6.30546 6.35449 6.95364 6.35449 8.25V13.75C6.35449 15.0464 6.35449 15.6945 6.75575 16.0973C7.15703 16.5 7.80285 16.5 9.0945 16.5H11.8345C13.1262 16.5 13.772 16.5 14.1733 16.0973C14.5745 15.6945 14.5745 15.0464 14.5745 13.75V8.25C14.5745 6.95364 14.5745 6.30546 14.1733 5.90272C13.772 5.5 13.1262 5.5 11.8345 5.5H9.0945C7.80285 5.5 7.15703 5.5 6.75575 5.90272Z" fill="black"/>
<path fill-rule="evenodd" clip-rule="evenodd" d="M7.48152 6.63196L7.48485 6.63008C7.4875 6.62869 7.49205 6.62646 7.49895 6.62361C7.52879 6.61129 7.59506 6.59026 7.72733 6.57241C8.01603 6.53345 8.41881 6.53127 9.09369 6.53127H11.8337C12.5086 6.53127 12.9114 6.53345 13.2001 6.57241C13.3323 6.59026 13.3986 6.61129 13.4284 6.62361C13.4353 6.62646 13.4399 6.62869 13.4425 6.63008L13.4459 6.63196L13.4478 6.63531C13.4491 6.63797 13.4514 6.64253 13.4542 6.64946C13.4665 6.67941 13.4874 6.74591 13.5052 6.87868C13.544 7.16842 13.5462 7.57268 13.5462 8.25002V13.75C13.5462 14.4273 13.544 14.8316 13.5052 15.1213C13.4874 15.2541 13.4665 15.3207 13.4542 15.3505C13.4514 15.3575 13.4491 15.3621 13.4478 15.3647L13.4459 15.3681L13.4425 15.3699C13.4399 15.3714 13.4353 15.3736 13.4284 15.3764C13.3986 15.3887 13.3323 15.4098 13.2001 15.4276C12.9114 15.4666 12.5086 15.4688 11.8337 15.4688H9.09369C8.41881 15.4688 8.01603 15.4666 7.72733 15.4276C7.59506 15.4098 7.52879 15.3887 7.49895 15.3764C7.49205 15.3736 7.4875 15.3714 7.48485 15.3699L7.48152 15.3681L7.47963 15.3647C7.47825 15.3621 7.47603 15.3575 7.4732 15.3505C7.46092 15.3207 7.43997 15.2541 7.42218 15.1213C7.38336 14.8316 7.38119 14.4273 7.38119 13.75V8.25002C7.38119 7.57268 7.38336 7.16842 7.42218 6.87868C7.43997 6.74591 7.46092 6.67941 7.4732 6.64946C7.47603 6.64253 7.47825 6.63797 7.47963 6.63531L7.48152 6.63196ZM9.03238 4.46875C9.05277 4.46877 9.0732 4.46877 9.09369 4.46877H11.8337C11.8542 4.46877 11.8746 4.46877 11.895 4.46875C12.488 4.46869 13.0316 4.46863 13.4739 4.52831C13.9609 4.59402 14.4756 4.74864 14.899 5.17354C15.3224 5.59844 15.4764 6.11507 15.5419 6.60385C15.6014 7.04772 15.6014 7.59337 15.6012 8.18849C15.6012 8.20895 15.6012 8.22945 15.6012 8.25002V13.75C15.6012 13.7706 15.6012 13.7911 15.6012 13.8116C15.6014 14.4067 15.6014 14.9523 15.5419 15.3962C15.4764 15.885 15.3224 16.4016 14.899 16.8264C14.4756 17.2514 13.9609 17.406 13.4739 17.4717C13.0316 17.5314 12.488 17.5314 11.895 17.5313C11.8746 17.5313 11.8542 17.5313 11.8337 17.5313H9.09369C9.0732 17.5313 9.05277 17.5313 9.0324 17.5313C8.43943 17.5314 7.89576 17.5314 7.45351 17.4717C6.9665 17.406 6.45176 17.2514 6.02839 16.8264C5.60503 16.4016 5.45097 15.885 5.3855 15.3962C5.32604 14.9523 5.3261 14.4067 5.32618 13.8116C5.32618 13.7911 5.32618 13.7706 5.32618 13.75V8.25002C5.32618 8.22945 5.32618 8.20893 5.32618 8.18849C5.3261 7.59336 5.32604 7.04772 5.3855 6.60385C5.45097 6.11507 5.60503 5.59844 6.02839 5.17354C6.45176 4.74864 6.9665 4.59402 7.45351 4.52831C7.89576 4.46863 8.43942 4.46869 9.03238 4.46875ZM21.1849 6.63008L21.1815 6.63196L21.1797 6.63531C21.1784 6.63797 21.176 6.64253 21.1733 6.64946C21.161 6.67941 21.14 6.74591 21.1222 6.87868C21.0834 7.16842 21.0812 7.57268 21.0812 8.25002C21.0812 8.92734 21.0834 9.33161 21.1222 9.62135C21.14 9.75412 21.161 9.82061 21.1733 9.85056C21.1744 9.85334 21.1763 9.85779 21.1763 9.85779C21.1777 9.86084 21.1797 9.86472 21.1797 9.86472L21.1815 9.86806L21.1849 9.86996C21.1875 9.87135 21.1921 9.87356 21.1991 9.87642C21.2288 9.88874 21.2951 9.90977 21.4274 9.92761C21.7161 9.96657 22.1189 9.96877 22.7937 9.96877H25.5338C26.2086 9.96877 26.6114 9.96657 26.9001 9.92761C27.0324 9.90977 27.0987 9.88874 27.1284 9.87642C27.1354 9.87356 27.1399 9.87135 27.1426 9.86996L27.146 9.86806L27.1478 9.86472C27.1491 9.86205 27.1515 9.8575 27.1542 9.85056C27.1665 9.82061 27.1875 9.75412 27.2053 9.62135C27.2441 9.33161 27.2463 8.92734 27.2463 8.25002C27.2463 7.57268 27.2441 7.16842 27.2053 6.87868C27.1875 6.74591 27.1665 6.67941 27.1542 6.64946C27.1515 6.64253 27.1491 6.63797 27.1478 6.63531L27.146 6.63196L27.1426 6.63008C27.1399 6.62869 27.1354 6.62646 27.1284 6.62361C27.0987 6.61129 27.0324 6.59026 26.9001 6.57241C26.6114 6.53345 26.2086 6.53127 25.5338 6.53127H22.7937C22.1189 6.53127 21.7161 6.53345 21.4274 6.57241C21.2951 6.59026 21.2288 6.61129 21.1991 6.62361C21.1921 6.62646 21.1875 6.62869 21.1849 6.63008ZM22.7325 4.46875H25.595C26.1881 4.46869 26.7317 4.46863 27.1739 4.52831C27.661 4.59402 28.1757 4.74864 28.599 5.17354C29.0225 5.59844 29.1765 6.11507 29.2419 6.60385C29.3014 7.04772 29.3014 7.59336 29.3013 8.18849V8.31154C29.3014 8.90666 29.3014 9.4523 29.2419 9.89617C29.1765 10.385 29.0225 10.9016 28.599 11.3265C28.1757 11.7514 27.661 11.906 27.1739 11.9717C26.7317 12.0314 26.1881 12.0313 25.595 12.0313H22.7325C22.1394 12.0313 21.5958 12.0314 21.1536 11.9717C20.6665 11.906 20.1518 11.7514 19.7285 11.3265C19.305 10.9016 19.151 10.385 19.0856 9.89617C19.0261 9.4523 19.0261 8.90666 19.0262 8.31154C19.0262 8.29109 19.0262 8.27057 19.0262 8.25002C19.0262 8.22945 19.0262 8.20895 19.0262 8.18849C19.0261 7.59337 19.0261 7.04772 19.0856 6.60385C19.151 6.11507 19.305 5.59844 19.7285 5.17354C20.1518 4.74864 20.6665 4.59402 21.1536 4.52831C21.5958 4.46863 22.1394 4.46869 22.7325 4.46875ZM22.7325 15.4688H25.595C26.1881 15.4688 26.7317 15.4686 27.1739 15.5283C27.661 15.594 28.1757 15.7486 28.599 16.1736C29.0225 16.5985 29.1765 17.115 29.2419 17.6039C29.3014 18.0477 29.3014 18.5933 29.3013 19.1885V24.8116C29.3014 25.4067 29.3014 25.9523 29.2419 26.3962C29.1765 26.885 29.0225 27.4016 28.599 27.8264C28.1757 28.2514 27.661 28.406 27.1739 28.4717C26.7317 28.5314 26.1881 28.5314 25.595 28.5313H22.7325C22.1394 28.5314 21.5958 28.5314 21.1536 28.4717C20.6665 28.406 20.1518 28.2514 19.7285 27.8264C19.305 27.4016 19.151 26.885 19.0856 26.3962C19.0261 25.9523 19.0261 25.4067 19.0262 24.8116V19.25C19.0262 19.2295 19.0262 19.2089 19.0262 19.1885C19.0261 18.5933 19.0261 18.0477 19.0856 17.6039C19.151 17.115 19.305 16.5985 19.7285 16.1736C20.1518 15.7486 20.6665 15.594 21.1536 15.5283C21.5958 15.4686 22.1394 15.4688 22.7325 15.4688ZM21.1849 17.6301L21.1815 17.6319L21.1797 17.6353C21.1784 17.638 21.176 17.6425 21.1733 17.6495C21.161 17.6795 21.14 17.7459 21.1222 17.8787C21.0834 18.1684 21.0812 18.5727 21.0812 19.25V24.75C21.0812 25.4273 21.0834 25.8316 21.1222 26.1213C21.14 26.2541 21.161 26.3207 21.1733 26.3505C21.176 26.3575 21.1784 26.3621 21.1797 26.3647L21.1815 26.3681L21.1849 26.3699C21.1875 26.3714 21.1921 26.3736 21.1991 26.3764C21.2288 26.3887 21.2951 26.4098 21.4274 26.4276C21.7161 26.4666 22.1189 26.4688 22.7937 26.4688H25.5338C26.2086 26.4688 26.6114 26.4666 26.9001 26.4276C27.0324 26.4098 27.0987 26.3887 27.1284 26.3764C27.1354 26.3736 27.1399 26.3714 27.1426 26.3699L27.146 26.3681L27.1478 26.3647C27.1491 26.3621 27.1515 26.3575 27.1542 26.3505C27.1665 26.3207 27.1875 26.2541 27.2053 26.1213C27.2441 25.8316 27.2463 25.4273 27.2463 24.75V19.25C27.2463 18.5727 27.2441 18.1684 27.2053 17.8787C27.1875 17.7459 27.1665 17.6795 27.1542 17.6495C27.1526 17.6454 27.151 17.6421 27.15 17.6395L27.1478 17.6353L27.146 17.6319L27.1426 17.6301C27.1399 17.6287 27.1354 17.6264 27.1284 17.6237C27.0987 17.6113 27.0324 17.5902 26.9001 17.5724C26.6114 17.5335 26.2086 17.5313 25.5338 17.5313H22.7937C22.1189 17.5313 21.7161 17.5335 21.4274 17.5724C21.2951 17.5902 21.2288 17.6113 21.1991 17.6237C21.1921 17.6264 21.1875 17.6287 21.1849 17.6301ZM7.48485 23.1301L7.48152 23.1319L7.47963 23.1353C7.47825 23.138 7.47603 23.1425 7.4732 23.1495C7.46092 23.1795 7.43996 23.2459 7.42218 23.3787C7.38336 23.6684 7.38119 24.0727 7.38119 24.75C7.38119 25.4273 7.38336 25.8316 7.42218 26.1213C7.43996 26.2541 7.46092 26.3207 7.4732 26.3505C7.47603 26.3575 7.47825 26.3621 7.47963 26.3647L7.48152 26.3681L7.48485 26.3699C7.4875 26.3714 7.49205 26.3736 7.49895 26.3764C7.52879 26.3887 7.59506 26.4098 7.72733 26.4276C8.01603 26.4666 8.41881 26.4688 9.09369 26.4688H11.8337C12.5086 26.4688 12.9114 26.4666 13.2001 26.4276C13.3323 26.4098 13.3986 26.3887 13.4284 26.3764C13.4319 26.375 13.4372 26.3726 13.4372 26.3726L13.4425 26.3699L13.4459 26.3681L13.4478 26.3647L13.4498 26.3607C13.451 26.3581 13.4525 26.3548 13.4542 26.3505C13.4665 26.3207 13.4874 26.2541 13.5052 26.1213C13.544 25.8316 13.5462 25.4273 13.5462 24.75C13.5462 24.0727 13.544 23.6684 13.5052 23.3787C13.4874 23.2459 13.4665 23.1795 13.4542 23.1495C13.4514 23.1425 13.4491 23.138 13.4478 23.1353L13.4459 23.1319L13.4425 23.1301C13.4399 23.1287 13.4353 23.1264 13.4284 23.1237C13.3986 23.1113 13.3323 23.0902 13.2001 23.0724C12.9114 23.0335 12.5086 23.0313 11.8337 23.0313H9.09369C8.41881 23.0313 8.01603 23.0335 7.72733 23.0724C7.59506 23.0902 7.52879 23.1113 7.49895 23.1237C7.49205 23.1264 7.4875 23.1287 7.48485 23.1301ZM9.0324 20.9688H11.895C12.488 20.9688 13.0316 20.9686 13.4739 21.0283C13.9609 21.094 14.4756 21.2486 14.899 21.6736C15.3224 22.0985 15.4764 22.615 15.5419 23.1039C15.6014 23.5477 15.6014 24.0933 15.6012 24.6885V24.8116C15.6014 25.4067 15.6014 25.9523 15.5419 26.3962C15.4764 26.885 15.3224 27.4016 14.899 27.8264C14.4756 28.2514 13.9609 28.406 13.4739 28.4717C13.0316 28.5314 12.488 28.5314 11.895 28.5313H9.03238C8.43943 28.5314 7.89576 28.5314 7.45351 28.4717C6.9665 28.406 6.45176 28.2514 6.02839 27.8264C5.60503 27.4016 5.45097 26.885 5.3855 26.3962C5.32604 25.9523 5.3261 25.4067 5.32618 24.8116V24.6885C5.3261 24.0933 5.32604 23.5477 5.3855 23.1039C5.45097 22.615 5.60503 22.0985 6.02839 21.6736C6.45176 21.2486 6.9665 21.094 7.45351 21.0283C7.89576 20.9686 8.43943 20.9688 9.0324 20.9688Z" fill="black"/>
</svg>
