<svg width="350" height="350" viewBox="0 0 350 350" fill="none" xmlns="http://www.w3.org/2000/svg">
<path d="M175 145.833V204.167M149.736 160.417L200.254 189.583M200.25 160.417L149.731 189.583" stroke="black" stroke-width="16" stroke-linecap="round"/>
<path d="M98.1809 145.833V204.167M72.9164 160.417L123.435 189.583M123.431 160.417L72.9131 189.583" stroke="black" stroke-width="16" stroke-linecap="round"/>
<path d="M251.827 145.833V204.167M226.562 160.417L277.08 189.583M277.077 160.417L226.559 189.583" stroke="black" stroke-width="16" stroke-linecap="round"/>
<path d="M320.834 175C320.834 229.997 320.834 257.497 303.748 274.581C286.663 291.667 259.164 291.667 204.167 291.667H145.834C90.8364 291.667 63.3379 291.667 46.2524 274.581C29.167 257.497 29.167 229.997 29.167 175C29.167 120.003 29.167 92.5043 46.2524 75.4188C63.3379 58.3334 90.8364 58.3334 145.834 58.3334H204.167C259.164 58.3334 286.663 58.3334 303.748 75.4188C313.274 84.9443 317.488 97.7068 319.353 116.667" stroke="black" stroke-width="16" stroke-linecap="round"/>
</svg>
