<svg width="101" height="100" viewBox="0 0 101 100" fill="none" xmlns="http://www.w3.org/2000/svg">
<path opacity="0.5" d="M13.0391 41.6668C13.0391 25.9533 13.0391 18.0966 17.9029 13.215C22.7667 8.3335 30.5949 8.3335 46.2513 8.3335H54.5544C70.2106 8.3335 78.0392 8.3335 82.9027 13.215C87.7666 18.0966 87.7666 25.9533 87.7666 41.6668V58.3335C87.7666 74.0468 87.7666 81.9039 82.9027 86.7852C78.0392 91.6668 70.2106 91.6668 54.5544 91.6668H46.2513C30.5949 91.6668 22.7667 91.6668 17.9029 86.7852C13.0391 81.9039 13.0391 74.0468 13.0391 58.3335V41.6668Z" stroke="#B89B00" stroke-width="4"/>
<path d="M33.7969 50H67.0091" stroke="#B89B00" stroke-width="4" stroke-linecap="round"/>
<path d="M33.7969 33.3335H67.0091" stroke="#B89B00" stroke-width="4" stroke-linecap="round"/>
<path d="M33.7969 66.667H54.5545" stroke="#B89B00" stroke-width="4" stroke-linecap="round"/>
</svg>
