<svg width="250" height="250" viewBox="0 0 350 350" fill="none" xmlns="http://www.w3.org/2000/svg">
<path d="M176.751 186.375C175.73 186.229 174.417 186.229 173.251 186.375C147.584 185.5 127.167 164.5 127.167 138.687C127.167 112.291 148.459 90.8539 175.001 90.8539C201.397 90.8539 222.834 112.291 222.834 138.687C222.688 164.5 202.417 185.5 176.751 186.375Z" stroke="black" stroke-width="16" stroke-linecap="round" stroke-linejoin="round"/>
<path d="M273.292 282.626C247.334 306.397 212.917 320.835 175.001 320.835C137.084 320.835 102.667 306.397 76.709 282.626C78.1673 268.918 86.9173 255.501 102.521 245.001C142.48 218.46 207.813 218.46 247.48 245.001C263.084 255.501 271.834 268.918 273.292 282.626Z" stroke="black" stroke-width="16" stroke-linecap="round" stroke-linejoin="round"/>
<path d="M175 320.833C255.541 320.833 320.834 255.541 320.834 175C320.834 94.4584 255.541 29.1666 175 29.1666C94.4588 29.1666 29.167 94.4584 29.167 175C29.167 255.541 94.4588 320.833 175 320.833Z" stroke="black" stroke-width="16" stroke-linecap="round" stroke-linejoin="round"/>
</svg>
