<svg width="250" height="300" viewBox="0 0 252 309" fill="none" xmlns="http://www.w3.org/2000/svg">
<path d="M90.7266 0C70.1286 0 54.2634 18.7396 56.1504 39.7441L65.9395 148.354C66.2325 151.605 68.3673 153.968 69.918 156.666C65.1208 159.021 61.1912 162.869 58.7344 167.576C45.2638 165.524 35 154.069 35 140C40.6798 140 45.9858 137.665 49.793 133.793C53.6652 129.986 56 124.68 56 119C56 115.184 54.9696 111.576 53.1426 108.459C49.501 102.23 42.6956 98 35 98H21C15.3202 98 10.0142 100.335 6.20703 104.207C2.33481 108.014 0 113.32 0 119C0 130.518 9.48182 140 21 140C21 160.823 36.3586 178.175 56.3008 181.412C57.7744 193.49 68.0491 203 80.5 203H119V224H112C110.144 224 108.363 224.738 107.05 226.05C105.738 227.363 105 229.144 105 231V259C93.4443 259 81.7309 263.459 72.4336 270.744C63.1363 278.029 56 288.599 56 301C55.9869 301.928 56.1582 302.849 56.5041 303.709C56.85 304.57 57.3636 305.354 58.0149 306.014C58.6662 306.675 59.4423 307.199 60.2981 307.557C61.1539 307.915 62.0723 308.1 63 308.1C63.9277 308.1 64.8461 307.915 65.7019 307.557C66.5577 307.199 67.3338 306.675 67.9851 306.014C68.6364 305.354 69.15 304.57 69.4958 303.709C69.8417 302.849 70.0131 301.928 70 301C70 294.074 74.2032 287.147 81.0742 281.764C87.9452 276.38 97.2287 273 105 273H112H119V301C118.987 301.928 119.158 302.849 119.504 303.709C119.85 304.57 120.364 305.354 121.015 306.014C121.666 306.675 122.442 307.199 123.298 307.557C124.154 307.915 125.072 308.1 126 308.1C126.928 308.1 127.846 307.915 128.702 307.557C129.558 307.199 130.334 306.675 130.985 306.014C131.636 305.354 132.15 304.57 132.496 303.709C132.842 302.849 133.013 301.928 133 301V273H140H147C154.771 273 164.055 276.38 170.926 281.764C177.797 287.147 182 294.074 182 301C181.987 301.928 182.158 302.849 182.504 303.709C182.85 304.57 183.364 305.354 184.015 306.014C184.666 306.675 185.442 307.199 186.298 307.557C187.154 307.915 188.072 308.1 189 308.1C189.928 308.1 190.846 307.915 191.702 307.557C192.558 307.199 193.334 306.675 193.985 306.014C194.636 305.354 195.15 304.57 195.496 303.709C195.842 302.849 196.013 301.928 196 301C196 288.599 188.864 278.029 179.566 270.744C170.269 263.459 158.556 259 147 259V231C147 229.144 146.262 227.363 144.95 226.05C143.637 224.738 141.856 224 140 224H133V203H171.5C183.951 203 194.226 193.49 195.699 181.412C215.641 178.175 231 160.823 231 140C236.68 140 241.986 137.665 245.793 133.793C249.665 129.986 252 124.68 252 119C252 107.482 242.518 98 231 98H217C211.32 98 206.014 100.335 202.207 104.207C200.744 105.611 199.662 107.109 198.885 108.404C198.876 108.422 198.866 108.441 198.857 108.459C197.03 111.576 196 115.184 196 119C196 130.518 205.482 140 217 140C217 154.069 206.736 165.524 193.266 167.576C190.809 162.869 186.879 159.021 182.082 156.666C183.632 153.97 185.781 151.603 186.074 148.354L195.85 39.7441C197.737 18.7396 181.871 0 161.273 0H90.7266ZM90.7266 14H161.273C173.365 14 183.111 25.0508 181.904 38.4863L172.129 147.096C171.752 151.276 168.687 154 165.293 154H86.707C83.3126 154 80.2492 151.29 79.8711 147.096L70.0957 38.4863C68.8887 25.0508 78.6345 14 90.7266 14ZM21 112H35C37.6575 112 39.8094 113.366 41.0703 115.527V115.541C41.6233 116.484 42 117.776 42 119C42 120.983 41.2524 122.625 39.9902 123.854C39.944 123.898 39.8985 123.944 39.8535 123.99C38.6255 125.252 36.9833 126 35 126H29.1758C28.4198 125.875 27.6485 125.875 26.8926 126H21C17.1182 126 14 122.882 14 119C14 117.017 14.7476 115.375 16.0098 114.146C16.056 114.102 16.1015 114.056 16.1465 114.01C17.3745 112.748 19.0167 112 21 112ZM217 112H231C234.882 112 238 115.118 238 119C238 120.983 237.252 122.625 235.99 123.854C235.944 123.898 235.898 123.944 235.854 123.99C234.625 125.252 232.983 126 231 126H225.176C224.42 125.875 223.649 125.875 222.893 126H217C213.118 126 210 122.882 210 119C210 117.776 210.377 116.484 210.93 115.541C211.343 114.863 211.652 114.474 211.873 114.27C211.967 114.185 212.058 114.099 212.146 114.01C213.375 112.748 215.017 112 217 112ZM80.5 168H86.707H165.293H171.5C177.386 168 182 172.614 182 178.5C182 184.386 177.386 189 171.5 189H127.176C126.42 188.875 125.649 188.875 124.893 189H80.5C74.6143 189 70 184.386 70 178.5C70 172.614 74.6143 168 80.5 168ZM119 238H124.824C125.58 238.125 126.351 238.125 127.107 238H133V259H127.176C126.42 258.875 125.649 258.875 124.893 259H119V238Z" fill="black"/>
</svg>
