<svg width="34" height="23" viewBox="0 0 34 23" fill="none" xmlns="http://www.w3.org/2000/svg">
<path d="M22.545 21.2159L21.3598 22.5186C21.0796 22.8268 20.6995 22.9999 20.3032 23H2.36857C1.9722 23 1.59205 22.8269 1.31177 22.5188C1.03148 22.2107 0.874023 21.7929 0.874023 21.3571V15.525C0.874023 15.146 0.993208 14.7787 1.21138 14.4853C1.42956 14.1919 1.7333 13.9904 2.07116 13.915C2.57671 13.8003 3.0308 13.4974 3.35684 13.0575C3.68288 12.6175 3.86091 12.0674 3.86091 11.5C3.86091 10.9326 3.68288 10.3825 3.35684 9.94254C3.0308 9.5026 2.57671 9.19973 2.07116 9.085C1.7333 9.00959 1.42956 8.8081 1.21138 8.51468C0.993208 8.22127 0.874023 7.85396 0.874023 7.475V1.64286C0.874023 1.20714 1.03148 0.789277 1.31177 0.481182C1.59205 0.173086 1.9722 1.0212e-08 2.36857 0H20.3032C20.6995 9.30486e-05 21.0796 0.173241 21.3598 0.481358L22.545 1.78414L23.7302 0.481358C24.0104 0.173241 24.3905 9.30588e-05 24.7868 0H32.2596C32.656 1.0212e-08 33.0361 0.173086 33.3164 0.481182C33.5967 0.789277 33.7541 1.20714 33.7541 1.64286V7.475C33.7541 7.85396 33.635 8.22127 33.4168 8.51468C33.1986 8.8081 32.8949 9.00959 32.557 9.085C32.0515 9.19973 31.5974 9.5026 31.2713 9.94254C30.9453 10.3825 30.7673 10.9326 30.7673 11.5C30.7673 12.0674 30.9453 12.6175 31.2713 13.0575C31.5974 13.4974 32.0515 13.8003 32.557 13.915C32.8949 13.9904 33.1986 14.1919 33.4168 14.4853C33.635 14.7787 33.7541 15.146 33.7541 15.525V21.3571C33.7541 21.7929 33.5967 22.2107 33.3164 22.5188C33.0361 22.8269 32.656 23 32.2596 23H24.7868C24.3905 22.9999 24.0104 22.8268 23.7302 22.5186L22.545 21.2159ZM30.765 19.7143V16.6972C29.8706 16.2304 29.1151 15.4943 28.586 14.5743C28.0569 13.6544 27.7761 12.5884 27.7761 11.5C27.7761 10.4117 28.0569 9.34562 28.586 8.42569C29.1151 7.50575 29.8706 6.76964 30.765 6.30282V3.28571H25.4056L24.0396 4.78729V18.2127L25.4056 19.7143H30.765ZM21.0505 18.2127V4.78729L19.6844 3.28571H3.86313V6.30282C4.75752 6.76964 5.51312 7.50575 6.04219 8.42569C6.57126 9.34562 6.85209 10.4117 6.85209 11.5C6.85209 12.5884 6.57126 13.6544 6.04219 14.5743C5.51312 15.4943 4.75752 16.2304 3.86313 16.6972V19.7143H19.6844L21.0505 18.2127Z" fill="black"/>
</svg>
