<svg width="85" height="89" viewBox="0 0 85 89" fill="none" xmlns="http://www.w3.org/2000/svg">
<path d="M71.4606 56.2185C71.4606 61.5935 75.8612 65.9685 81.2167 65.9685C81.2167 81.5935 77.3143 85.5102 61.746 85.5102H22.8047C7.23642 85.5102 3.33398 81.5935 3.33398 65.9685V64.0519C8.68946 64.0519 13.0901 59.6352 13.0901 54.2602C13.0901 48.8852 8.68946 44.4685 3.33398 44.4685V42.5519C3.3755 26.9269 7.23642 23.0103 22.8047 23.0103H61.7045C77.2727 23.0103 81.1752 26.9269 81.1752 42.5519V46.4685C75.8197 46.4685 71.4606 50.8019 71.4606 56.2185Z" stroke="white" stroke-width="6.25" stroke-linecap="round" stroke-linejoin="round"/>
<path d="M60.256 23.0106H22.5186L34.6826 10.8022C44.6047 0.843912 49.5866 0.843912 59.5087 10.8022L61.9997 13.3022C59.3842 15.9272 58.7615 19.8022 60.256 23.0106Z" stroke="white" stroke-width="6.25" stroke-linecap="round" stroke-linejoin="round"/>
<path d="M33.9678 23.0112V85.5114" stroke="white" stroke-width="6.25" stroke-linecap="round" stroke-linejoin="round" stroke-dasharray="20.83 20.83"/>
</svg>
