<svg width="160" height="200" viewBox="0 0 167 202" fill="none" xmlns="http://www.w3.org/2000/svg">
<path d="M6 179L12.4065 154.089C23.0041 112.881 51.0021 92 79 92" stroke="black" stroke-width="12" stroke-linecap="round" stroke-linejoin="round"/>
<path d="M79 92C101.644 92 120 72.7482 120 49C120 25.2518 101.644 6 79 6C56.3563 6 38 25.2518 38 49C38 72.7482 56.3563 92 79 92Z" stroke="black" stroke-width="12" stroke-linecap="round" stroke-linejoin="bevel"/>
<path d="M120 196C142.644 196 161 176.748 161 153C161 129.252 142.644 110 120 110C97.3563 110 79 129.252 79 153C79 176.748 97.3563 196 120 196Z" stroke="black" stroke-width="12" stroke-linecap="round" stroke-linejoin="round"/>
<path d="M120.5 154C121.328 154 122 153.328 122 152.5C122 151.672 121.328 151 120.5 151C119.672 151 119 151.672 119 152.5C119 153.328 119.672 154 120.5 154Z" stroke="black" stroke-width="12" stroke-linecap="round" stroke-linejoin="round"/>
<path d="M98.5 154C99.3284 154 100 153.328 100 152.5C100 151.672 99.3284 151 98.5 151C97.6716 151 97 151.672 97 152.5C97 153.328 97.6716 154 98.5 154Z" stroke="black" stroke-width="12" stroke-linecap="round" stroke-linejoin="round"/>
<path d="M140 154C141.105 154 142 153.328 142 152.5C142 151.672 141.105 151 140 151C138.895 151 138 151.672 138 152.5C138 153.328 138.895 154 140 154Z" stroke="black" stroke-width="12" stroke-linecap="round" stroke-linejoin="round"/>
</svg>
