<svg width="366" height="350" viewBox="0 0 366 350" fill="none" xmlns="http://www.w3.org/2000/svg">
<path d="M292.375 223.837C292.375 230.58 298.252 236.047 305.5 236.047C312.749 236.047 318.625 230.58 318.625 223.837H292.375ZM165.5 24.4186H200.5V1.77907e-05H165.5V24.4186ZM200.5 325.581H165.5V350H200.5V325.581ZM73.625 240.116V109.884H47.375V240.116H73.625ZM165.5 325.581C140.38 325.581 122.861 325.555 109.642 323.903C96.801 322.296 90.001 319.36 85.1577 314.853L66.5961 332.121C77.1297 341.919 90.3925 346.134 106.144 348.103C121.519 350.026 141.122 350 165.5 350V325.581ZM47.375 240.116C47.375 262.793 47.3472 281.029 49.4141 295.332C51.532 309.984 56.0625 322.321 66.5961 332.121L85.1577 314.853C80.3144 310.347 77.1565 304.023 75.4301 292.077C73.6528 279.78 73.625 263.483 73.625 240.116H47.375ZM200.5 350C224.878 350 244.481 350.026 259.857 348.103C275.608 346.134 288.87 341.919 299.405 332.121L280.843 314.853C275.999 319.36 269.2 322.296 256.358 323.903C243.139 325.555 225.62 325.581 200.5 325.581V350ZM200.5 24.4186C225.62 24.4186 243.139 24.4445 256.358 26.0978C269.2 27.7037 275.999 30.6413 280.843 35.1467L299.405 17.8801C288.87 8.08144 275.608 3.86695 259.857 1.89686C244.481 -0.0258651 224.878 1.77907e-05 200.5 1.77907e-05V24.4186ZM318.625 109.884C318.625 87.2068 318.653 68.9709 316.586 54.6692C314.469 40.0162 309.938 27.6788 299.405 17.8801L280.843 35.1467C285.687 39.6521 288.844 45.9776 290.571 57.9229C292.347 70.2193 292.375 86.5164 292.375 109.884H318.625ZM165.5 1.77907e-05C141.122 1.77907e-05 121.519 -0.0258651 106.144 1.89686C90.3925 3.86695 77.1297 8.08144 66.5961 17.8801L85.1577 35.1467C90.001 30.6413 96.801 27.7037 109.642 26.0978C122.861 24.4445 140.38 24.4186 165.5 24.4186V1.77907e-05ZM73.625 109.884C73.625 86.5164 73.6528 70.2193 75.4301 57.9229C77.1565 45.9776 80.3144 39.6521 85.1577 35.1467L66.5961 17.8801C56.0625 27.6788 51.532 40.0162 49.4141 54.6692C47.3472 68.9709 47.375 87.2068 47.375 109.884H73.625ZM291.005 288.685C289.402 302.869 286.121 309.944 280.843 314.853L299.405 332.121C310.908 321.42 315.249 307.694 317.111 291.239L291.005 288.685ZM292.375 109.884V223.837H318.625V109.884H292.375Z" fill="black"/>
<path d="M305.499 297.093C313.628 297.093 317.693 297.093 321.093 296.591C339.813 293.834 354.496 280.176 357.46 262.762C357.999 259.599 357.999 255.817 357.999 248.256V101.744C357.999 94.1824 357.999 90.4016 357.46 87.238C354.496 69.8237 339.813 56.1661 321.093 53.4079C317.693 52.9069 313.628 52.9069 305.499 52.9069" stroke="black" stroke-width="16"/>
<path d="M60.5 297.093C52.3712 297.093 48.3069 297.093 44.9059 296.591C26.1856 293.834 11.5037 280.176 8.53865 262.762C8 259.599 8 255.817 8 248.256V101.744C8 94.1824 8 90.4016 8.53865 87.238C11.5037 69.8237 26.1856 56.1661 44.9059 53.4079C48.3069 52.9069 52.3712 52.9069 60.5 52.9069" stroke="black" stroke-width="16"/>
<path d="M226.749 109.884C241.246 109.884 252.999 98.9511 252.999 85.4651C252.999 71.9791 241.246 61.0465 226.749 61.0465C212.252 61.0465 200.499 71.9791 200.499 85.4651C200.499 98.9511 212.252 109.884 226.749 109.884Z" stroke="black" stroke-width="16"/>
<path d="M60.5 220.84L83.0862 199.283C94.8367 188.069 112.547 188.712 123.587 200.755L178.902 261.09C187.764 270.757 201.713 272.075 211.966 264.216L215.812 261.268C230.567 249.957 250.529 251.267 263.934 264.426L305.5 297.093" stroke="black" stroke-width="16" stroke-linecap="round"/>
</svg>
